<?xml version="1.0" standalone="no"?>
<!DOCTYPE svg PUBLIC "-//W3C//DTD SVG 20010904//EN"
 "http://www.w3.org/TR/2001/REC-SVG-20010904/DTD/svg10.dtd">
<svg version="1.0" xmlns="http://www.w3.org/2000/svg"
 width="1280.000000pt" height="1280.000000pt" viewBox="0 0 1280.000000 1280.000000"
 preserveAspectRatio="xMidYMid meet">
<metadata>
Created by potrace 1.15, written by Peter Selinger 2001-2017
</metadata>
<g transform="translate(0.000000,1280.000000) scale(0.100000,-0.100000)"
fill="#000000" stroke="none">
<path d="M3535 12171 c-90 -20 -296 -119 -373 -180 -26 -20 -86 -56 -134 -79
-74 -36 -97 -54 -160 -122 -40 -45 -95 -95 -123 -112 -94 -57 -370 -251 -460
-323 -49 -39 -162 -125 -250 -190 -88 -66 -216 -174 -285 -240 -177 -171 -305
-284 -381 -338 -78 -54 -129 -114 -188 -217 -23 -41 -84 -131 -135 -200 -378
-512 -509 -764 -475 -919 10 -50 157 -310 202 -360 97 -105 319 -288 376 -309
9 -3 52 -25 96 -50 64 -35 114 -77 245 -206 314 -308 427 -380 1005 -641 582
-263 877 -433 990 -571 126 -155 153 -348 139 -974 -17 -742 -5 -1010 67
-1435 34 -206 147 -698 193 -842 95 -298 125 -403 147 -523 23 -117 24 -148
24 -510 l0 -385 33 -99 c17 -54 32 -114 32 -133 0 -49 -115 -628 -147 -738
-50 -174 -64 -251 -73 -410 -10 -179 -23 -251 -79 -440 -62 -207 -79 -294
-117 -582 l-5 -43 1110 0 1110 0 33 58 33 57 9 -57 9 -58 1049 0 1048 0 0 34
c0 67 -49 323 -85 440 -88 291 -209 587 -339 829 l-68 128 -8 287 c-9 317 -3
280 -105 637 -35 124 -37 139 -46 350 -5 121 -18 284 -29 361 -11 78 -20 161
-20 185 0 74 118 351 259 609 47 85 106 204 132 265 25 60 76 175 112 255 85
189 170 453 230 712 34 146 203 395 304 451 76 41 172 58 348 64 196 7 327 -5
635 -58 328 -57 454 -75 613 -90 150 -14 218 -8 565 47 180 28 238 30 335 8
57 -13 105 -16 242 -11 190 6 240 16 415 86 229 92 300 157 359 332 59 172 81
421 81 914 0 329 -7 402 -45 475 -8 15 -22 75 -30 132 -50 326 -81 467 -165
758 -16 58 -37 135 -45 172 -8 38 -36 121 -61 185 -25 64 -53 139 -61 166 -8
27 -32 90 -53 139 -28 64 -39 102 -38 137 0 34 -12 78 -41 149 -22 56 -48 134
-57 174 -9 39 -40 121 -69 182 -51 107 -57 114 -152 199 -171 152 -414 308
-585 376 -32 13 -96 45 -144 72 -106 61 -167 77 -226 60 -48 -14 -72 -31 -203
-141 -49 -42 -135 -108 -191 -147 -127 -91 -164 -131 -164 -181 0 -20 7 -45
15 -56 10 -13 11 -24 5 -37 -16 -30 -11 -85 10 -112 43 -54 199 -107 321 -107
36 0 90 -7 120 -16 61 -18 182 -77 261 -127 102 -65 219 -107 294 -107 46 0
63 -9 78 -39 21 -40 44 -166 51 -271 3 -52 11 -147 17 -211 9 -97 8 -138 -7
-254 -13 -104 -15 -164 -9 -249 4 -61 8 -244 8 -406 1 -253 5 -314 24 -430 12
-74 21 -166 20 -205 -1 -56 7 -93 36 -182 24 -75 36 -131 36 -169 l0 -56 -22
15 c-13 9 -59 37 -103 63 -124 75 -364 134 -600 149 -55 4 -174 13 -265 21
-91 8 -192 12 -226 8 -73 -7 -93 1 -179 77 -33 29 -85 68 -115 87 -30 19 -84
54 -120 77 -95 62 -156 91 -310 145 -253 89 -543 139 -698 120 -96 -12 -162
-33 -302 -96 l-105 -47 -210 -11 c-115 -6 -253 -9 -306 -6 -92 5 -97 6 -163
49 -44 29 -92 74 -139 130 l-72 86 3 79 4 78 46 -7 c26 -4 91 -20 146 -36 109
-32 200 -38 244 -15 63 33 112 112 112 181 0 31 11 49 68 113 37 41 82 89 99
106 20 18 35 43 39 65 4 20 22 62 41 94 27 45 40 57 59 57 38 0 91 26 108 52
12 18 16 57 17 172 l2 148 44 52 c24 28 50 53 58 56 35 12 154 132 174 175 21
46 50 210 70 399 5 54 15 104 20 109 8 8 11 6 11 -7 0 -35 25 -9 33 35 23 122
-15 331 -91 494 -88 190 -357 473 -572 601 -245 147 -457 214 -675 216 -256 1
-452 -69 -664 -238 -195 -157 -318 -325 -414 -566 -44 -110 -58 -191 -64 -384
-5 -148 -3 -192 11 -245 20 -81 21 -243 2 -359 -21 -124 -100 -424 -135 -508
-37 -88 -117 -214 -198 -307 -32 -39 -83 -105 -111 -147 -29 -42 -67 -88 -85
-102 -134 -102 -244 -67 -449 142 -96 98 -123 133 -158 203 -84 166 -181 281
-311 370 -143 97 -490 241 -649 269 -137 24 -352 42 -542 45 l-207 4 -122 100
c-67 54 -148 114 -180 133 -33 18 -133 77 -223 130 -186 110 -340 169 -505
194 -52 8 -97 17 -99 19 -3 2 49 63 114 135 66 72 135 149 154 172 19 22 89
98 155 169 162 174 239 270 305 376 47 77 140 220 338 521 95 145 440 494 539
545 47 25 111 22 153 -6 36 -25 168 -71 231 -81 19 -4 96 -11 169 -16 110 -9
138 -14 155 -30 13 -12 46 -23 90 -29 51 -8 81 -19 119 -44 71 -49 126 -75
193 -92 108 -28 173 -12 199 50 20 48 18 67 -11 108 -20 31 -23 41 -14 66 10
29 5 56 -92 471 -30 127 -48 159 -122 207 -52 34 -82 46 -164 62 -158 33 -355
50 -638 55 -227 5 -270 3 -340 -13z"/>
</g>
</svg>
